# xmcd CD database file
# Copyright (C) 1996 Ti Kan
#
# Track frame offsets:
#  150
#  23765
#  39135
#  50832
#  62405
#  76392
#  102660
#  128320
#  140732
#  157610
#  170075
#  186380
#  195182
#
# Disc length: 2875 seconds
#
# Revision: 2
# Processed by: cddbd v1.4PL0 Copyright (c) Steve Scherf et al.
# Submitted via: Gronk 1.4
#
DISCID=a20b390d
DTITLE=Johnny Shines - Worried Blues Ain't Bad
DYEAR=1900
DGENRE=blues
TTITLE0=Slavery Time Breakdown
TTITLE1=This Morning
TTITLE2=Country Blues
TTITLE3=Deep Freeze
TTITLE4=Devil's Daughter
TTITLE5=You're The One I Love
TTITLE6=About My Wish
TTITLE7=Went To The River To Drown
TTITLE8=I Thought I Heard A Tone
TTITLE9=Down In Spirit
TTITLE10=Worried Blues Ain't Bad
TTITLE11=Stop Cryin'
TTITLE12=Goodbye
EXTD=Recorded February 1974 at Damon Studios, Edmonton, Canada\n\nJohnny 
EXTD=Shines:  vocals, acoustic guitar\nDon Audet:  harmonica\nRichard Bak
EXTD=er:  second guitar\nBob Derkach:  bass\n\nSubmitted 7/2/97\n[Jmccoy@
EXTD=efn.org]
EXTT0=
EXTT1=
EXTT2=
EXTT3=
EXTT4=
EXTT5=
EXTT6=
EXTT7=
EXTT8=
EXTT9=
EXTT10=
EXTT11=
EXTT12=
PLAYORDER=
